<?xml version="1.0" encoding="UTF-8"?>
<svg id="Layer_1" data-name="Layer 1" xmlns="http://www.w3.org/2000/svg" viewBox="0 0 573 128">
  <defs>
    <style>
      .cls-1 {
        fill: #0000de;
      }

      .cls-2 {
        fill: #10bd7e;
      }
    </style>
  </defs>
  <g>
    <g>
      <g>
        <path class="cls-2" d="m168.02,21.95l-7.25,2.52c-.85-2.72-1.97-4.72-3.36-6.02-1.39-1.29-3.29-1.94-5.69-1.94-2.23,0-3.95.66-5.16,1.98s-1.82,2.83-1.82,4.54c0,1.88.68,3.38,2.05,4.5s4.09,2.45,8.17,4c3.48,1.33,6.16,2.59,8.04,3.79,1.88,1.2,3.4,2.81,4.56,4.83,1.16,2.02,1.75,4.35,1.75,7,0,4.31-1.52,7.98-4.56,11-3.04,3.03-7.3,4.54-12.79,4.54-9.46,0-15.32-4.78-17.57-14.34l7.58-2.14c1.33,6.31,4.78,9.46,10.37,9.46,2.73,0,4.8-.71,6.21-2.12,1.41-1.41,2.12-3.16,2.12-5.24,0-1.53-.49-2.94-1.46-4.24-.98-1.3-3.41-2.69-7.29-4.17-4.11-1.55-7.07-2.87-8.88-3.94-1.81-1.08-3.36-2.67-4.64-4.77s-1.92-4.49-1.92-7.17c0-4.08,1.42-7.51,4.26-10.29,2.84-2.78,6.61-4.17,11.32-4.17,8.34,0,13.66,4.13,15.96,12.39Z"/>
        <path class="cls-2" d="m151.94,62.9c-9.53,0-15.5-4.88-17.77-14.5l-.04-.19,7.98-2.25.04.21c1.32,6.26,4.64,9.3,10.17,9.3,2.66,0,4.7-.69,6.07-2.06,1.37-1.37,2.06-3.08,2.06-5.1,0-1.47-.48-2.86-1.42-4.12-.95-1.26-3.37-2.65-7.2-4.1-4.09-1.55-7.09-2.88-8.91-3.96-1.83-1.09-3.42-2.71-4.71-4.84-1.29-2.12-1.95-4.57-1.95-7.28,0-4.12,1.46-7.63,4.33-10.43,2.86-2.8,6.72-4.23,11.46-4.23,8.4,0,13.84,4.22,16.15,12.54l.05.18-.18.06-7.45,2.58-.06-.2c-.84-2.67-1.95-4.67-3.31-5.93-1.34-1.25-3.21-1.89-5.55-1.89-2.16,0-3.84.64-5.02,1.91-1.17,1.27-1.77,2.75-1.77,4.4,0,1.81.66,3.27,1.97,4.34,1.34,1.1,4.07,2.43,8.11,3.97,3.48,1.33,6.19,2.61,8.07,3.81,1.9,1.21,3.45,2.86,4.63,4.9,1.18,2.04,1.77,4.43,1.77,7.11,0,4.35-1.56,8.1-4.62,11.15-3.06,3.05-7.42,4.6-12.93,4.6Zm-17.33-14.41c2.25,9.29,8.08,14,17.33,14,5.4,0,9.66-1.51,12.64-4.49,2.99-2.97,4.5-6.63,4.5-10.86,0-2.61-.58-4.93-1.72-6.9-1.14-1.98-2.66-3.58-4.5-4.76-1.86-1.19-4.55-2.46-8-3.77-4.08-1.55-6.85-2.91-8.22-4.04-1.41-1.15-2.12-2.72-2.12-4.66,0-1.75.63-3.33,1.87-4.68,1.25-1.36,3.04-2.04,5.31-2.04,2.44,0,4.4.67,5.83,2,1.37,1.28,2.5,3.27,3.35,5.91l6.87-2.38c-2.29-8-7.58-12.06-15.71-12.06-4.63,0-8.39,1.38-11.18,4.11-2.79,2.73-4.2,6.14-4.2,10.14,0,2.63.63,5.01,1.89,7.07,1.26,2.07,2.79,3.65,4.57,4.7,1.8,1.07,4.78,2.39,8.85,3.93,3.96,1.51,6.37,2.89,7.38,4.24,1,1.33,1.5,2.8,1.5,4.37,0,2.12-.73,3.94-2.18,5.38-1.45,1.45-3.59,2.18-6.36,2.18-5.6,0-9.14-3.17-10.52-9.41l-7.19,2.03Z"/>
      </g>
      <g>
        <path class="cls-2" d="m176.5,23.83h7.21v6.23c1.97-4.58,5.1-6.87,9.37-6.87,3.82,0,6.91,1.67,9.26,5.01,2.35,3.34,3.52,8.11,3.52,14.29,0,5.53-1.07,10.24-3.2,14.12s-5.45,5.82-9.94,5.82c-3.59,0-6.4-1.54-8.42-4.62v16.79h-7.81V23.83Zm7.81,22.06c0,2.42.18,4.32.54,5.68s1.1,2.53,2.22,3.49c1.12.96,2.39,1.44,3.81,1.44,4.43,0,6.65-4.68,6.65-14.03s-2.17-13.58-6.5-13.58c-1.92,0-3.52.93-4.8,2.78-1.28,1.85-1.92,4.49-1.92,7.91v6.3Z"/>
        <path class="cls-2" d="m184.52,74.8h-8.22V23.63h7.62v5.51c2.02-4.08,5.1-6.15,9.17-6.15s7.05,1.72,9.43,5.1c2.36,3.36,3.56,8.21,3.56,14.41,0,5.54-1.09,10.32-3.22,14.22-2.16,3.93-5.56,5.92-10.11,5.92-3.43,0-6.2-1.4-8.22-4.17v16.34Zm-7.81-.41h7.41v-17.26l.37.57c1.97,3,4.75,4.53,8.25,4.53,4.39,0,7.67-1.92,9.76-5.72,2.11-3.83,3.17-8.55,3.17-14.02,0-6.11-1.17-10.88-3.49-14.17-2.3-3.27-5.36-4.93-9.09-4.93-4.17,0-7.26,2.27-9.19,6.75l-.39.9v-7.01h-6.81v50.37Zm14.18-17.7c-1.46,0-2.79-.5-3.94-1.49-1.15-.98-1.92-2.19-2.29-3.59-.36-1.37-.55-3.3-.55-5.73v-6.3c0-3.45.66-6.15,1.96-8.03,1.31-1.9,2.99-2.86,4.96-2.86,4.45,0,6.7,4.64,6.7,13.78s-2.3,14.23-6.85,14.23Zm.15-27.6c-1.84,0-3.4.9-4.63,2.69-1.25,1.8-1.89,4.43-1.89,7.8v6.3c0,2.4.18,4.29.53,5.63.35,1.32,1.07,2.46,2.16,3.39,1.08.93,2.31,1.4,3.68,1.4,4.28,0,6.44-4.65,6.44-13.82s-2.12-13.37-6.3-13.37Z"/>
      </g>
      <g>
        <path class="cls-2" d="m213.19,23.83h6.87v8.49c2.11-6.18,5.28-9.28,9.5-9.28.4,0,.88.04,1.43.11v8.15c-.65-.07-1.18-.11-1.58-.11-5.6,0-8.41,3.76-8.41,11.27v19.3h-7.81V23.83Z"/>
        <path class="cls-2" d="m221.21,61.96h-8.22V23.63h7.28v7.54c2.13-5.53,5.26-8.33,9.3-8.33.41,0,.9.04,1.46.11l.18.02v8.55l-.23-.03c-.65-.07-1.17-.11-1.56-.11-5.52,0-8.2,3.62-8.2,11.06v19.51Zm-7.81-.41h7.41v-19.1c0-7.61,2.9-11.47,8.61-11.47.36,0,.82.03,1.38.09v-7.75c-.47-.06-.88-.09-1.23-.09-4.11,0-7.24,3.07-9.31,9.14l-.39,1.15v-9.5h-6.47v37.52Z"/>
      </g>
      <g>
        <path class="cls-2" d="m242.19,18.72h-8.22v-8.3h8.22v8.3Zm-8.04,5.11h7.81v37.93h-7.81V23.83Z"/>
        <path class="cls-2" d="m242.16,61.96h-8.22V23.63h8.22v38.33Zm-7.81-.41h7.41V24.03h-7.41v37.52Zm8.04-42.63h-8.63v-8.7h8.63v8.7Zm-8.22-.41h7.82v-7.89h-7.82v7.89Z"/>
      </g>
      <g>
        <path class="cls-2" d="m251.2,23.83h7.21v5.86c1.76-4.51,4.89-6.76,9.41-6.76,2.56,0,4.62.61,6.19,1.84,1.57,1.23,2.56,2.7,2.97,4.41.41,1.71.62,4.43.62,8.13v24.45h-7.81v-24.01c0-3.3-.29-5.55-.87-6.73-.58-1.19-1.81-1.78-3.69-1.78s-3.49.76-4.58,2.27c-1.09,1.51-1.64,4.52-1.64,9.02v21.23h-7.81V23.83Z"/>
        <path class="cls-2" d="m277.8,61.96h-8.22v-24.21c0-3.26-.28-5.49-.84-6.64-.55-1.12-1.7-1.67-3.51-1.67s-3.37.74-4.41,2.18c-1.06,1.47-1.6,4.47-1.6,8.9v21.43h-8.22V23.63h7.61v5.07c1.84-3.96,4.94-5.97,9.2-5.97,2.59,0,4.72.63,6.31,1.88,1.6,1.25,2.62,2.77,3.04,4.52.42,1.72.63,4.47.63,8.18v24.65Zm-7.81-.41h7.41v-24.25c0-3.67-.21-6.39-.62-8.08-.4-1.66-1.38-3.11-2.9-4.3-1.53-1.19-3.56-1.8-6.06-1.8-4.4,0-7.5,2.23-9.22,6.63l-.39,1v-6.73h-6.8v37.52h7.41v-21.03c0-4.59.55-7.58,1.68-9.14,1.13-1.56,2.72-2.35,4.74-2.35s3.26.64,3.88,1.9c.6,1.23.89,3.46.89,6.82v23.8Z"/>
      </g>
      <g>
        <path class="cls-2" d="m316.05,17.78v5.75c-.73-.15-1.33-.23-1.8-.23-2.3,0-3.67,1.39-4.09,4.17,1.9,2.4,2.85,5.12,2.85,8.15,0,3.43-1.19,6.32-3.57,8.67-2.38,2.35-5.58,3.53-9.61,3.53-1.53,0-3.13-.23-4.81-.68-1.9.73-2.85,1.83-2.85,3.31,0,1.28.51,2.1,1.52,2.48,1.01.37,3.7.68,8.05.9,3.76.2,6.58.55,8.49,1.05,1.9.5,3.42,1.52,4.56,3.06,1.14,1.54,1.71,3.56,1.71,6.06,0,3.86-1.49,6.78-4.47,8.77s-7.22,2.99-12.73,2.99-9.18-.87-11.62-2.61-3.66-4.05-3.66-6.93c0-3.66,1.84-6.1,5.52-7.32-2.75-1.53-4.13-3.59-4.13-6.2,0-3.3,1.86-5.84,5.6-7.62-3.26-2.15-4.88-5.39-4.88-9.73,0-3.71,1.24-6.7,3.72-8.99,2.48-2.29,5.67-3.44,9.58-3.44,2.55,0,4.94.55,7.17,1.65.4-2.63,1.16-4.45,2.27-5.46s2.74-1.52,4.86-1.52c.63,0,1.4.06,2.33.19Zm-21.67,42.4c-2.18,1.08-3.27,2.69-3.27,4.84,0,1.8.7,3.13,2.1,3.98s3.73,1.28,6.98,1.28c6.01,0,9.01-1.74,9.01-5.22,0-1.7-.57-2.87-1.71-3.51-1.14-.64-3.39-1.01-6.74-1.11-2.83-.1-4.96-.19-6.38-.26Zm10.55-24.67c0-4.96-1.71-7.44-5.14-7.44-3.73,0-5.6,2.5-5.6,7.51s1.8,7.29,5.41,7.29,5.33-2.45,5.33-7.36Z"/>
        <path class="cls-2" d="m299.3,75.97c-5.33,0-9.27-.89-11.74-2.65-2.49-1.77-3.75-4.16-3.75-7.09,0-3.59,1.76-6.07,5.24-7.37-2.56-1.54-3.85-3.61-3.85-6.15,0-3.28,1.81-5.85,5.4-7.65-3.11-2.18-4.68-5.44-4.68-9.7,0-3.75,1.27-6.82,3.78-9.14,2.5-2.32,5.77-3.49,9.71-3.49,2.48,0,4.84.52,7.02,1.55.42-2.52,1.19-4.31,2.29-5.31,1.15-1.04,2.83-1.57,5-1.57.64,0,1.41.06,2.36.19l.18.02v6.17l-.24-.05c-.71-.15-1.3-.22-1.76-.22-2.18,0-3.46,1.28-3.88,3.91,1.89,2.41,2.84,5.17,2.84,8.2,0,3.47-1.22,6.44-3.63,8.82-2.41,2.38-5.69,3.59-9.76,3.59-1.52,0-3.13-.22-4.8-.67-1.79.7-2.66,1.71-2.66,3.09,0,1.19.45,1.94,1.39,2.29.99.37,3.68.67,7.99.89,3.75.2,6.61.56,8.53,1.06,1.94.51,3.51,1.57,4.67,3.14,1.16,1.57,1.75,3.65,1.75,6.18,0,3.91-1.53,6.92-4.56,8.94-3,2-7.32,3.02-12.84,3.02Zm.11-52.84c-3.84,0-7.01,1.14-9.44,3.38-2.42,2.24-3.65,5.22-3.65,8.85,0,4.24,1.61,7.45,4.79,9.56l.3.2-.32.16c-3.64,1.73-5.48,4.24-5.48,7.44,0,2.51,1.35,4.54,4.03,6.02l.4.22-.44.15c-3.62,1.21-5.38,3.54-5.38,7.13,0,2.8,1.2,5.07,3.58,6.76,2.4,1.71,6.27,2.57,11.51,2.57s9.69-.99,12.62-2.95c2.91-1.94,4.38-4.84,4.38-8.6,0-2.45-.56-4.45-1.67-5.94-1.1-1.49-2.6-2.5-4.45-2.99-1.89-.5-4.73-.85-8.45-1.04-4.42-.23-7.07-.53-8.11-.91-1.1-.41-1.65-1.31-1.65-2.67,0-1.56,1-2.74,2.98-3.49l.06-.02.06.02c1.65.44,3.25.67,4.76.67,3.96,0,7.14-1.17,9.47-3.47,2.33-2.3,3.51-5.17,3.51-8.53,0-2.97-.95-5.67-2.81-8.02l-.06-.07v-.09c.45-2.88,1.9-4.34,4.31-4.34.43,0,.97.06,1.6.18v-5.32c-.84-.11-1.56-.16-2.13-.16-2.07,0-3.66.49-4.73,1.47-1.07.98-1.82,2.77-2.21,5.34l-.04.27-.25-.12c-2.19-1.08-4.57-1.63-7.08-1.63Zm.79,47.36c-3.28,0-5.66-.44-7.09-1.31-1.46-.89-2.2-2.28-2.2-4.15,0-2.23,1.14-3.92,3.38-5.03l.05-.02h.05c1.41.08,3.5.16,6.38.27,3.42.1,5.65.47,6.83,1.13,1.2.68,1.81,1.92,1.81,3.69,0,3.6-3.1,5.42-9.22,5.42Zm-5.78-10.1c-2.09,1.05-3.11,2.57-3.11,4.64,0,1.74.66,2.99,2,3.81,1.36.83,3.68,1.25,6.88,1.25,5.85,0,8.81-1.69,8.81-5.02,0-1.64-.53-2.73-1.61-3.34-1.1-.62-3.34-.98-6.65-1.08-2.85-.1-4.92-.19-6.33-.26Zm5.18-17.32c-3.72,0-5.61-2.52-5.61-7.49s1.95-7.71,5.8-7.71c3.55,0,5.35,2.57,5.35,7.64s-1.86,7.56-5.54,7.56Zm.19-14.8c-3.63,0-5.39,2.39-5.39,7.31s1.7,7.08,5.21,7.08,5.13-2.34,5.13-7.16-1.62-7.23-4.94-7.23Z"/>
      </g>
      <g>
        <path class="cls-2" d="m320.56,10.5h8.3v31.81c0,3.56.19,6.18.56,7.87s1.23,3.03,2.57,4.02c1.34.99,3.15,1.48,5.43,1.48,2.15,0,3.83-.41,5.03-1.22,1.2-.81,2.05-1.96,2.55-3.46.5-1.49.75-4.44.75-8.84V10.5h7.62v31.24c0,5.01-.36,8.86-1.07,11.57s-2.37,4.95-4.96,6.72c-2.59,1.78-6.06,2.67-10.42,2.67-3.38,0-6.31-.56-8.81-1.67s-4.37-2.92-5.65-5.41c-1.28-2.49-1.92-6.93-1.92-13.31V10.5Z"/>
        <path class="cls-2" d="m336.93,62.9c-3.39,0-6.38-.57-8.89-1.69-2.52-1.13-4.46-2.98-5.75-5.5-1.29-2.51-1.94-7.02-1.94-13.41V10.29h8.7v32.01c0,3.52.19,6.15.56,7.82.36,1.63,1.2,2.95,2.49,3.9,1.3.96,3.08,1.44,5.31,1.44,2.1,0,3.76-.4,4.92-1.19,1.16-.78,1.99-1.91,2.48-3.35.49-1.46.74-4.42.74-8.78V10.29h8.03v31.45c0,5-.36,8.91-1.08,11.62-.72,2.74-2.42,5.04-5.04,6.84-2.61,1.79-6.15,2.7-10.54,2.7Zm-16.17-52.2v31.61c0,6.32.64,10.77,1.89,13.22,1.25,2.44,3.12,4.23,5.55,5.31,2.45,1.1,5.39,1.65,8.72,1.65,4.3,0,7.76-.88,10.31-2.63,2.54-1.74,4.18-3.96,4.88-6.61.71-2.67,1.06-6.55,1.06-11.51V10.7h-7.22v31.46c0,4.41-.26,7.4-.76,8.91-.51,1.53-1.4,2.72-2.63,3.56-1.23.83-2.96,1.26-5.15,1.26-2.31,0-4.18-.51-5.55-1.52-1.37-1.01-2.27-2.41-2.65-4.14-.38-1.7-.57-4.36-.57-7.91V10.7h-7.89Z"/>
      </g>
      <g>
        <path class="cls-2" d="m362.55,23.83h7.21v6.23c1.97-4.58,5.1-6.87,9.37-6.87,3.82,0,6.91,1.67,9.26,5.01,2.35,3.34,3.52,8.11,3.52,14.29,0,5.53-1.07,10.24-3.2,14.12-2.13,3.88-5.44,5.82-9.94,5.82-3.59,0-6.4-1.54-8.42-4.62v16.79h-7.81V23.83Zm7.81,22.06c0,2.42.18,4.32.54,5.68s1.1,2.53,2.22,3.49c1.12.96,2.39,1.44,3.81,1.44,4.43,0,6.65-4.68,6.65-14.03s-2.17-13.58-6.5-13.58c-1.92,0-3.52.93-4.8,2.78-1.28,1.85-1.92,4.49-1.92,7.91v6.3Z"/>
        <path class="cls-2" d="m370.56,74.8h-8.22V23.63h7.61v5.51c2.02-4.08,5.1-6.15,9.17-6.15s7.05,1.72,9.43,5.1c2.36,3.36,3.56,8.21,3.56,14.41,0,5.54-1.09,10.33-3.23,14.22-2.16,3.93-5.56,5.92-10.11,5.92-3.43,0-6.2-1.4-8.22-4.17v16.34Zm-7.81-.41h7.41v-17.26l.37.57c1.97,3,4.75,4.53,8.25,4.53,4.39,0,7.67-1.92,9.76-5.72,2.11-3.83,3.18-8.55,3.18-14.02,0-6.11-1.17-10.88-3.49-14.17-2.3-3.27-5.36-4.93-9.09-4.93-4.17,0-7.26,2.27-9.19,6.75l-.39.9v-7.01h-6.8v50.37Zm14.18-17.7c-1.46,0-2.79-.5-3.94-1.49-1.15-.98-1.92-2.19-2.29-3.59-.36-1.37-.55-3.3-.55-5.73v-6.3c0-3.45.66-6.15,1.96-8.03,1.32-1.9,2.99-2.86,4.96-2.86,4.45,0,6.7,4.64,6.7,13.78s-2.3,14.23-6.85,14.23Zm.15-27.6c-1.84,0-3.4.9-4.63,2.69-1.25,1.81-1.89,4.43-1.89,7.8v6.3c0,2.4.18,4.29.53,5.63.35,1.32,1.07,2.46,2.16,3.39,1.08.93,2.31,1.4,3.68,1.4,4.28,0,6.44-4.65,6.44-13.82s-2.12-13.37-6.3-13.37Z"/>
      </g>
      <g>
        <path class="cls-2" d="m413.88,10.5h8.49v44.09h18.14v7.17h-26.63V10.5Z"/>
        <path class="cls-2" d="m440.71,61.96h-27.03V10.29h8.89v44.09h18.14v7.58Zm-26.63-.41h26.22v-6.77h-18.14V10.7h-8.08v50.86Z"/>
      </g>
      <g>
        <path class="cls-2" d="m452.07,34.57l-7.55-.94c.5-3.38,2.06-6.01,4.67-7.89s5.82-2.82,9.62-2.82c3.4,0,6.12.68,8.16,2.05,2.04,1.36,3.32,2.99,3.84,4.86.52,1.88.79,4.72.79,8.52v12.92c0,5.23.23,8.73.68,10.48h-7.4c-.32-1.38-.49-3.48-.49-6.31-2.37,4.83-5.92,7.25-10.65,7.25-3.2,0-5.77-.98-7.7-2.95-1.94-1.96-2.9-4.64-2.9-8.02,0-4.13,1.42-7.4,4.25-9.8s7.75-3.61,14.75-3.61c.35,0,.9.01,1.65.04v-1.54c0-2.7-.41-4.74-1.22-6.12-.81-1.38-2.27-2.07-4.36-2.07-3.42,0-5.46,1.98-6.14,5.93Zm11.72,8.71c-1-.1-1.76-.15-2.28-.15-6.79,0-10.19,2.67-10.19,8,0,3.88,1.68,5.82,5.05,5.82,1.97,0,3.7-1.05,5.19-3.15s2.23-4.99,2.23-8.67v-1.84Z"/>
        <path class="cls-2" d="m453.75,62.9c-3.24,0-5.88-1.01-7.85-3.01-1.97-2-2.96-4.74-2.96-8.16,0-4.17,1.46-7.52,4.33-9.96,2.86-2.42,7.87-3.65,14.88-3.65.32,0,.8.01,1.45.03v-1.33c0-2.65-.4-4.68-1.19-6.02-.77-1.31-2.18-1.97-4.19-1.97-3.34,0-5.28,1.89-5.94,5.77l-.03.19-7.95-.99.03-.21c.51-3.42,2.1-6.12,4.75-8.02,2.63-1.89,5.91-2.85,9.74-2.85,3.43,0,6.21.7,8.27,2.08,2.07,1.38,3.39,3.06,3.93,4.98.53,1.89.79,4.77.79,8.58v12.92c0,5.19.23,8.7.67,10.43l.06.25h-7.82l-.04-.16c-.29-1.25-.46-3.11-.49-5.53-2.4,4.4-5.91,6.63-10.45,6.63Zm8.4-24.37c-6.92,0-11.83,1.2-14.62,3.56-2.78,2.35-4.18,5.6-4.18,9.65,0,3.31.96,5.96,2.85,7.88,1.89,1.92,4.43,2.89,7.56,2.89,4.62,0,8.14-2.4,10.47-7.13l.38-.78v.87c0,2.69.15,4.75.45,6.11h6.98c-.41-1.84-.62-5.29-.62-10.28v-12.92c0-3.77-.26-6.62-.78-8.47-.51-1.82-1.78-3.42-3.76-4.75-1.99-1.34-4.7-2.01-8.04-2.01-3.74,0-6.94.94-9.5,2.78-2.5,1.8-4.03,4.34-4.55,7.55l7.15.89c.72-3.92,2.84-5.91,6.3-5.91,2.16,0,3.69.73,4.54,2.17.83,1.4,1.25,3.5,1.25,6.22v1.75h-.21c-.75-.03-1.29-.04-1.64-.04Zm-5.77,18.63c-3.49,0-5.26-2.03-5.26-6.02,0-5.44,3.49-8.2,10.39-8.2.53,0,1.28.05,2.3.15l.18.02v2.03c0,3.71-.76,6.67-2.26,8.79-1.52,2.15-3.32,3.24-5.35,3.24Zm5.13-13.82c-6.72,0-9.98,2.55-9.98,7.8,0,3.78,1.59,5.62,4.85,5.62,1.89,0,3.58-1.03,5.02-3.07,1.45-2.06,2.19-4.94,2.19-8.56v-1.66c-.9-.09-1.6-.13-2.08-.13Z"/>
      </g>
      <g>
        <path class="cls-2" d="m480.39,10.5h7.81v17.69c2.22-3.35,5.15-5.03,8.79-5.03,3.94,0,7.05,1.68,9.34,5.05,2.28,3.37,3.43,7.91,3.43,13.61,0,13.82-4.67,20.73-14,20.73-4.39,0-7.45-1.98-9.17-5.93-.58,1.43-1.16,3.14-1.74,5.14h-4.45V10.5Zm7.81,35.2c0,7.28,2.21,10.91,6.65,10.91,2.29,0,3.96-1.1,5-3.3s1.57-5.89,1.57-11.06-.52-8.44-1.57-10.41c-1.05-1.96-2.66-2.94-4.85-2.94-1.92,0-3.53.88-4.84,2.63s-1.96,4.11-1.96,7.09v7.09Z"/>
        <path class="cls-2" d="m495.75,62.75c-4.3,0-7.38-1.89-9.16-5.62-.52,1.33-1.04,2.9-1.55,4.69l-.04.15h-4.81V10.29h8.22v17.24c2.21-3.04,5.09-4.59,8.59-4.59,3.99,0,7.19,1.73,9.5,5.14,2.3,3.39,3.46,8.01,3.46,13.73,0,13.89-4.78,20.93-14.21,20.93Zm-9.18-6.66l.19.44c1.68,3.86,4.7,5.81,8.99,5.81,9.16,0,13.8-6.91,13.8-20.53,0-5.64-1.14-10.18-3.39-13.5-2.23-3.29-5.32-4.96-9.17-4.96-3.55,0-6.46,1.66-8.63,4.94l-.37.56V10.7h-7.41v50.86h4.1c.56-1.93,1.13-3.62,1.7-5.02l.18-.45Zm8.28.73c-4.55,0-6.85-3.74-6.85-11.12v-7.09c0-3.01.67-5.43,2-7.21,1.34-1.8,3.02-2.71,5-2.71,2.26,0,3.95,1.03,5.03,3.05,1.06,1.98,1.59,5.52,1.59,10.5s-.53,8.93-1.59,11.15c-1.08,2.27-2.82,3.42-5.19,3.42Zm.15-27.72c-1.84,0-3.41.86-4.67,2.55-1.28,1.71-1.92,4.05-1.92,6.97v7.09c0,7.11,2.17,10.71,6.44,10.71,2.23,0,3.8-1.04,4.82-3.18,1.03-2.16,1.55-5.86,1.55-10.98s-.52-8.39-1.54-10.31c-1.02-1.91-2.55-2.84-4.68-2.84Z"/>
      </g>
      <g>
        <path class="cls-2" d="m539.91,32.69l-6.12,1.65c-1.13-3.8-3.27-5.71-6.42-5.71-1.45,0-2.62.45-3.51,1.35-.89.9-1.33,2.02-1.33,3.34,0,1.5.45,2.6,1.35,3.31s2.97,1.58,6.2,2.63c3.98,1.33,6.85,2.82,8.6,4.49,1.75,1.67,2.63,3.99,2.63,6.97,0,3.36-1.25,6.19-3.76,8.51s-5.88,3.47-10.14,3.47c-8.04,0-12.59-3.68-13.67-11.04l6.65-1.24c.85,4.36,3.27,6.54,7.25,6.54,2.03,0,3.54-.5,4.52-1.5s1.48-2.19,1.48-3.57c0-.95-.34-1.9-1.01-2.84-.68-.94-2.57-1.91-5.67-2.91-2.98-.95-5.23-1.84-6.74-2.67-1.52-.83-2.76-2.02-3.74-3.59s-1.47-3.34-1.47-5.31c0-3.23,1.18-5.98,3.53-8.24,2.35-2.27,5.39-3.4,9.13-3.4,6.33,0,10.41,3.25,12.24,9.76Z"/>
        <path class="cls-2" d="m527.41,62.9c-8.12,0-12.78-3.77-13.87-11.21l-.03-.19,7.03-1.31.04.2c.84,4.29,3.14,6.37,7.05,6.37,1.96,0,3.43-.49,4.38-1.44.95-.96,1.43-2.11,1.43-3.43,0-.9-.33-1.82-.98-2.72-.65-.9-2.52-1.85-5.57-2.84-2.97-.95-5.25-1.85-6.77-2.68-1.54-.84-2.82-2.07-3.81-3.66-.99-1.59-1.5-3.42-1.5-5.42,0-3.27,1.21-6.09,3.59-8.39,2.38-2.29,5.5-3.46,9.27-3.46,6.41,0,10.59,3.34,12.44,9.91l.06.2-6.51,1.76-.06-.19c-1.11-3.74-3.15-5.56-6.23-5.56-1.39,0-2.52.44-3.37,1.29-.85.86-1.28,1.93-1.28,3.2,0,1.43.43,2.49,1.28,3.15.88.68,2.94,1.56,6.14,2.6,3.99,1.33,6.91,2.86,8.67,4.53,1.79,1.7,2.69,4.09,2.69,7.11,0,3.4-1.29,6.31-3.82,8.66-2.53,2.34-5.99,3.53-10.28,3.53Zm-13.44-11.08c1.11,7.08,5.63,10.67,13.44,10.67,4.19,0,7.55-1.15,10-3.42,2.45-2.27,3.69-5.08,3.69-8.36,0-2.91-.86-5.2-2.57-6.82-1.72-1.64-4.59-3.13-8.52-4.44-3.28-1.07-5.33-1.94-6.26-2.66-.95-.74-1.43-1.9-1.43-3.46,0-1.38.47-2.55,1.39-3.48.92-.94,2.15-1.41,3.66-1.41,3.19,0,5.39,1.9,6.56,5.66l5.73-1.55c-1.82-6.25-5.85-9.42-11.99-9.42-3.66,0-6.68,1.12-8.98,3.34-2.3,2.22-3.47,4.94-3.47,8.1,0,1.93.48,3.68,1.43,5.21.95,1.53,2.18,2.71,3.66,3.52,1.5.82,3.75,1.71,6.7,2.65,3.18,1.03,5.07,2,5.77,2.99.7.97,1.05,1.96,1.05,2.95,0,1.43-.52,2.67-1.54,3.71-1.02,1.04-2.59,1.56-4.67,1.56-4.01,0-6.5-2.19-7.41-6.5l-6.26,1.17Z"/>
      </g>
    </g>
    <g>
      <g>
        <path class="cls-1" d="m121.32,95.92h-10.7v6.11h9.27v2.34h-9.27v8.94h-2.61v-19.73h13.31v2.34Z"/>
        <path class="cls-1" d="m111.03,113.71h-3.42v-20.54h14.12v3.15h-10.7v5.3h9.27v3.15h-9.27v8.94Zm-2.61-.81h1.8v-8.94h9.27v-1.53h-9.27v-6.92h10.7v-1.53h-12.5v18.92Z"/>
      </g>
      <g>
        <path class="cls-1" d="m130.3,98.71c2.03,0,3.66.65,4.88,1.95,1.22,1.3,1.82,3.14,1.82,5.52s-.61,4.21-1.82,5.51c-1.22,1.31-2.84,1.96-4.88,1.96s-3.65-.65-4.86-1.96c-1.22-1.31-1.82-3.14-1.82-5.51s.61-4.22,1.82-5.52c1.22-1.3,2.84-1.95,4.86-1.95Zm0,12.94c1.21,0,2.19-.46,2.95-1.38s1.13-2.28,1.13-4.1-.38-3.19-1.13-4.11-1.74-1.38-2.95-1.38-2.19.46-2.95,1.38c-.75.92-1.13,2.29-1.13,4.11s.38,3.18,1.13,4.1c.75.92,1.74,1.38,2.95,1.38Z"/>
        <path class="cls-1" d="m130.3,114.05c-2.14,0-3.87-.7-5.16-2.09-1.28-1.38-1.93-3.32-1.93-5.79s.65-4.42,1.93-5.79c1.29-1.38,3.03-2.08,5.16-2.08s3.88.7,5.17,2.08c1.28,1.37,1.93,3.32,1.93,5.79s-.65,4.41-1.93,5.79c-1.29,1.39-3.03,2.09-5.17,2.09Zm0-14.94c-1.9,0-3.44.61-4.57,1.82-1.14,1.22-1.71,2.98-1.71,5.24s.58,4.01,1.71,5.24c1.13,1.21,2.67,1.83,4.57,1.83s3.45-.62,4.58-1.83c1.14-1.22,1.72-2.99,1.72-5.24s-.58-4.02-1.72-5.24c-1.13-1.21-2.67-1.82-4.58-1.82Zm0,12.94c-1.33,0-2.43-.51-3.26-1.53-.81-.99-1.22-2.45-1.22-4.35s.41-3.38,1.22-4.37c.83-1.01,1.93-1.53,3.26-1.53s2.43.51,3.26,1.53c.81.99,1.22,2.46,1.22,4.37s-.41,3.37-1.22,4.35c-.83,1.01-1.93,1.53-3.26,1.53Zm0-10.97c-1.09,0-1.96.4-2.64,1.23-.69.84-1.04,2.14-1.04,3.85s.35,3,1.04,3.84c.68.83,1.54,1.23,2.64,1.23s1.95-.4,2.63-1.23c.69-.84,1.04-2.13,1.04-3.84s-.35-3.01-1.04-3.85c-.68-.83-1.54-1.23-2.63-1.23Z"/>
      </g>
      <g>
        <path class="cls-1" d="m144.94,113.65c-3.9,0-5.94-1.53-6.12-4.6h2.54c.02,1.74,1.2,2.61,3.55,2.61,1.05,0,1.85-.22,2.4-.65s.83-.98.83-1.63-.27-1.1-.81-1.37c-.54-.27-1.65-.61-3.33-1.03-1.68-.42-2.91-.89-3.69-1.41s-1.16-1.43-1.16-2.74c0-1.18.48-2.16,1.45-2.94.96-.78,2.25-1.16,3.87-1.16,3.74,0,5.65,1.33,5.73,4h-2.53c-.09-1.35-1.1-2.02-3.03-2.02-.85,0-1.56.16-2.12.48s-.84.79-.84,1.41c0,.56.22.96.65,1.2.43.25,1.51.58,3.24,1,1.73.42,3.01.9,3.85,1.46.84.56,1.26,1.52,1.26,2.88s-.52,2.38-1.56,3.24c-1.03.86-2.43,1.29-4.18,1.29Z"/>
        <path class="cls-1" d="m144.94,114.05c-4.14,0-6.34-1.68-6.53-4.98l-.02-.43h3.37v.4c.01.95.35,2.21,3.15,2.21.95,0,1.68-.19,2.15-.57.46-.36.68-.79.68-1.32,0-.49-.19-.81-.58-1-.5-.25-1.6-.59-3.25-1-1.75-.44-3-.92-3.81-1.47-.89-.6-1.34-1.64-1.34-3.08,0-1.31.54-2.4,1.6-3.26,1.03-.83,2.42-1.25,4.12-1.25,3.98,0,6.05,1.48,6.14,4.39v.42s-3.32,0-3.32,0l-.02-.38c-.05-.7-.37-1.64-2.62-1.64-.78,0-1.42.15-1.92.43-.43.25-.63.59-.63,1.06,0,.41.14.68.44.85.27.16,1.04.45,3.13.95,1.76.43,3.1.94,3.98,1.52.95.63,1.44,1.71,1.44,3.22,0,1.42-.57,2.62-1.7,3.55-1.1.92-2.6,1.38-4.43,1.38Zm-5.68-4.6c.32,2.55,2.19,3.79,5.68,3.79,1.65,0,2.96-.4,3.92-1.19.95-.78,1.41-1.74,1.41-2.92s-.35-2.06-1.07-2.54c-.8-.53-2.05-1-3.72-1.4-1.78-.43-2.87-.77-3.34-1.04-.56-.32-.85-.85-.85-1.56,0-.76.36-1.37,1.04-1.76.62-.36,1.4-.54,2.32-.54,2.4,0,3.18,1.02,3.38,2.02h1.74c-.26-2.14-2-3.19-5.3-3.19-1.51,0-2.73.36-3.62,1.07-.87.7-1.29,1.56-1.29,2.62,0,1.18.32,1.96.99,2.41.73.49,1.93.95,3.56,1.36,1.73.44,2.85.78,3.41,1.06.68.33,1.03.93,1.03,1.73s-.33,1.44-.98,1.95c-.62.49-1.51.74-2.65.74-2.93,0-3.79-1.34-3.93-2.61h-1.72Z"/>
      </g>
      <g>
        <path class="cls-1" d="m159.16,113.34c-.56.11-1.16.16-1.82.16-1.04,0-1.8-.19-2.29-.56s-.78-.85-.9-1.43c-.12-.58-.17-1.38-.17-2.38v-8.1h-1.76v-1.99h1.76v-3.55h2.53v3.55h2.32v1.99h-2.32v8.23c0,.98.12,1.6.37,1.86s.59.4,1.02.4.86-.04,1.27-.11v1.92Z"/>
        <path class="cls-1" d="m157.35,113.9c-1.14,0-1.97-.21-2.53-.64-.56-.43-.92-1-1.05-1.68-.12-.61-.18-1.41-.18-2.46v-7.7h-1.77v-2.8h1.77v-3.55h3.34v3.55h2.32v2.8h-2.32v7.83c0,1.21.2,1.52.26,1.59.39.41,1.24.29,1.92.17l.47-.08v2.74l-.33.06c-.58.11-1.22.17-1.89.17Zm-4.72-13.28h1.77v8.51c0,.98.06,1.75.17,2.3.1.49.34.88.75,1.19.41.31,1.1.47,2.04.47.5,0,.97-.03,1.41-.1v-1.12c-.28.03-.57.05-.86.05-.54,0-.99-.18-1.31-.53-.33-.35-.48-1.03-.48-2.14v-8.64h2.32v-1.18h-2.32v-3.55h-1.72v3.55h-1.77v1.18Z"/>
      </g>
      <g>
        <path class="cls-1" d="m167.34,113.65c-2.1,0-3.79-.66-5.06-1.97-1.27-1.31-1.91-3.15-1.91-5.5s.62-4.16,1.85-5.48c1.23-1.32,2.85-1.98,4.84-1.98s3.66.65,4.88,1.95,1.82,3.14,1.82,5.52v.61h-10.75c.11,1.65.56,2.87,1.37,3.67.8.8,1.79,1.2,2.97,1.2.89,0,1.69-.23,2.4-.68.71-.45,1.09-1.1,1.12-1.93h2.62c-.2,1.47-.86,2.61-2,3.4-1.13.8-2.52,1.2-4.15,1.2Zm3.74-8.86c-.21-1.37-.67-2.4-1.39-3.08-.72-.68-1.6-1.02-2.64-1.02s-1.88.34-2.61,1.02c-.73.68-1.19,1.71-1.39,3.09h8.02Z"/>
        <path class="cls-1" d="m167.34,114.05c-2.2,0-4-.7-5.35-2.09-1.34-1.39-2.02-3.33-2.02-5.78s.66-4.37,1.96-5.76c1.31-1.4,3.03-2.11,5.13-2.11s3.89.7,5.18,2.08c1.28,1.37,1.93,3.32,1.93,5.79v1.01h-10.72c.15,1.33.55,2.33,1.21,2.98.73.73,1.61,1.08,2.68,1.08.82,0,1.53-.2,2.19-.62.6-.38.9-.9.94-1.61l.02-.39h3.47l-.06.46c-.21,1.58-.94,2.82-2.17,3.68-1.2.84-2.67,1.27-4.38,1.27Zm-.28-14.94c-1.89,0-3.38.61-4.54,1.86-1.15,1.24-1.74,2.99-1.74,5.21s.6,3.99,1.79,5.22c1.19,1.23,2.8,1.85,4.77,1.85,1.54,0,2.86-.38,3.92-1.12.93-.65,1.5-1.53,1.75-2.67h-1.78c-.13.79-.56,1.41-1.27,1.87-.78.49-1.66.74-2.62.74-1.28,0-2.38-.44-3.25-1.32-.87-.87-1.37-2.19-1.48-3.93l-.03-.43h10.78v-.2c0-2.26-.58-4.02-1.71-5.24-1.15-1.23-2.65-1.82-4.58-1.82Zm4.5,6.08h-8.96l.07-.46c.21-1.47.72-2.59,1.51-3.33.8-.75,1.77-1.12,2.89-1.12s2.13.38,2.92,1.13c.78.74,1.29,1.86,1.51,3.31l.07.47Zm-8.01-.81h7.06c-.22-1.05-.62-1.85-1.18-2.38-.64-.61-1.42-.91-2.36-.91s-1.68.3-2.34.91c-.57.53-.97,1.34-1.18,2.39Z"/>
      </g>
      <g>
        <path class="cls-1" d="m184.02,101.35c-.36-.11-.87-.16-1.55-.16-1.29,0-2.4.68-3.32,2.03v10.09h-2.54v-14.28h2.54v1.99c1.07-1.54,2.31-2.31,3.71-2.31.36,0,.74.03,1.16.11v2.53Z"/>
        <path class="cls-1" d="m179.55,113.71h-3.35v-15.09h3.35v1.24c.98-1.04,2.09-1.57,3.31-1.57.39,0,.8.04,1.23.11l.33.06v3.41l-.52-.16c-.32-.09-.8-.14-1.43-.14-1.13,0-2.08.57-2.92,1.75v10.37Zm-2.54-.81h1.73v-9.81l.07-.1c1-1.47,2.23-2.21,3.66-2.21.45,0,.82.02,1.14.07v-1.68c-.26-.03-.51-.05-.75-.05-1.28,0-2.39.7-3.38,2.14l-.74,1.07v-2.89h-1.73v13.47Z"/>
      </g>
      <g>
        <path class="cls-1" d="m188.32,96.33h-2.54v-2.74h2.54v2.74Zm0,16.98h-2.54v-14.28h2.54v14.28Z"/>
        <path class="cls-1" d="m188.73,113.71h-3.35v-15.09h3.35v15.09Zm-2.54-.81h1.73v-13.47h-1.73v13.47Zm2.54-16.17h-3.35v-3.55h3.35v3.55Zm-2.54-.81h1.73v-1.93h-1.73v1.93Z"/>
      </g>
      <g>
        <path class="cls-1" d="m194.61,100.85c1.26-1.43,2.69-2.14,4.27-2.14,3.22,0,4.83,1.75,4.83,5.26v9.34h-2.54v-9.23c0-1.17-.21-2-.63-2.52s-1.1-.77-2.05-.77c-1.29,0-2.58.76-3.87,2.29v10.23h-2.54v-14.28h2.54v1.82Z"/>
        <path class="cls-1" d="m204.11,113.71h-3.35v-9.64c0-1.06-.18-1.82-.53-2.26-.34-.41-.92-.62-1.74-.62-1.13,0-2.3.68-3.47,2.03v10.48h-3.35v-15.09h3.35v1.24c1.16-1.04,2.46-1.56,3.86-1.56,3.42,0,5.23,1.96,5.23,5.67v9.74Zm-2.54-.81h1.73v-8.93c0-3.27-1.45-4.86-4.42-4.86-1.45,0-2.79.67-3.96,2l-.71.8v-2.48h-1.73v13.47h1.73v-9.97l.1-.11c1.37-1.61,2.77-2.43,4.18-2.43,1.07,0,1.87.31,2.37.92.48.59.72,1.5.72,2.77v8.83Z"/>
      </g>
      <g>
        <path class="cls-1" d="m218.96,112.21c0,4.59-2.07,6.89-6.22,6.89-1.79,0-3.21-.39-4.24-1.17-1.04-.78-1.55-1.83-1.55-3.15h2.62c0,1.56,1.05,2.34,3.15,2.34,1.18,0,2.1-.33,2.74-.98.65-.65.97-1.93.97-3.83v-.71c-1.13,1.36-2.49,2.05-4.08,2.05-1.87,0-3.31-.66-4.33-1.99s-1.53-3.12-1.53-5.37.57-4.18,1.72-5.54,2.58-2.04,4.31-2.04c1.54,0,2.85.47,3.92,1.43v-1.1h2.53v13.17Zm-2.53-3v-6.78c-1.09-1.16-2.35-1.74-3.75-1.74-1.09,0-1.95.47-2.6,1.41-.65.94-.98,2.33-.98,4.19,0,1.76.31,3.09.92,4,.61.91,1.47,1.37,2.55,1.37,1.42,0,2.7-.82,3.86-2.45Z"/>
        <path class="cls-1" d="m212.75,119.5c-1.88,0-3.39-.42-4.49-1.25-1.14-.86-1.71-2.03-1.71-3.47v-.41h3.43v.41c0,.83.28,1.94,2.74,1.94,1.08,0,1.89-.28,2.46-.86.53-.54.82-1.63.85-3.24-1.06.96-2.29,1.44-3.67,1.44-1.99,0-3.56-.72-4.66-2.15-1.07-1.4-1.62-3.28-1.62-5.62s.61-4.37,1.81-5.8c1.22-1.45,2.77-2.18,4.62-2.18,1.33,0,2.51.34,3.51,1.01v-.68h3.34v13.58c0,4.84-2.23,7.29-6.62,7.29Zm-5.38-4.32c.09,1,.55,1.8,1.37,2.42.96.72,2.31,1.09,4,1.09,3.91,0,5.81-2.12,5.81-6.48v-12.77h-1.72v1.6l-.67-.6c-.99-.88-2.21-1.32-3.65-1.32-1.62,0-2.93.62-4,1.89-1.08,1.28-1.62,3.05-1.62,5.28s.49,3.87,1.45,5.12c.95,1.23,2.26,1.83,4.01,1.83,1.47,0,2.71-.62,3.76-1.9l.72-.87v1.84c0,2.03-.35,3.38-1.09,4.11-.72.73-1.74,1.1-3.03,1.1-2.62,0-3.4-1.19-3.53-2.34h-1.82Zm5.2-3.12c-1.22,0-2.19-.52-2.89-1.54-.66-.98-.99-2.4-.99-4.23,0-1.93.35-3.42,1.05-4.42.72-1.05,1.71-1.58,2.94-1.58,1.52,0,2.88.63,4.05,1.86l.11.12v7.07l-.07.1c-1.23,1.74-2.64,2.62-4.19,2.62Zm.11-10.97c-.96,0-1.7.4-2.27,1.23-.6.86-.91,2.2-.91,3.96,0,1.66.29,2.94.85,3.78.54.8,1.26,1.19,2.21,1.19,1.26,0,2.39-.71,3.46-2.17v-6.49c-1-1.01-2.09-1.5-3.35-1.5Z"/>
      </g>
      <g>
        <path class="cls-1" d="m233.32,113.31h-2.62v-19.73h2.62v19.73Z"/>
        <path class="cls-1" d="m233.73,113.71h-3.44v-20.54h3.44v20.54Zm-2.63-.81h1.82v-18.92h-1.82v18.92Z"/>
      </g>
      <g>
        <path class="cls-1" d="m240.24,100.85c1.26-1.43,2.69-2.14,4.27-2.14,3.22,0,4.83,1.75,4.83,5.26v9.34h-2.54v-9.23c0-1.17-.21-2-.63-2.52-.42-.51-1.1-.77-2.05-.77-1.29,0-2.58.76-3.87,2.29v10.23h-2.54v-14.28h2.54v1.82Z"/>
        <path class="cls-1" d="m249.74,113.71h-3.35v-9.64c0-1.06-.18-1.82-.53-2.26-.33-.41-.92-.62-1.74-.62-1.13,0-2.3.68-3.47,2.03v10.48h-3.35v-15.09h3.35v1.24c1.16-1.04,2.46-1.56,3.86-1.56,3.43,0,5.24,1.96,5.24,5.67v9.74Zm-2.54-.81h1.73v-8.93c0-3.27-1.45-4.86-4.43-4.86-1.47,0-2.77.65-3.96,2l-.71.8v-2.48h-1.73v13.47h1.73v-9.97l.1-.11c1.37-1.61,2.77-2.43,4.18-2.43,1.08,0,1.87.31,2.37.92.48.59.72,1.5.72,2.77v8.83Z"/>
      </g>
      <g>
        <path class="cls-1" d="m255.56,100.85c1.26-1.43,2.69-2.14,4.27-2.14,3.22,0,4.83,1.75,4.83,5.26v9.34h-2.54v-9.23c0-1.17-.21-2-.63-2.52-.42-.51-1.1-.77-2.05-.77-1.29,0-2.58.76-3.87,2.29v10.23h-2.54v-14.28h2.54v1.82Z"/>
        <path class="cls-1" d="m265.07,113.71h-3.35v-9.64c0-1.06-.18-1.82-.53-2.26-.33-.41-.92-.62-1.74-.62-1.13,0-2.3.68-3.47,2.03v10.48h-3.35v-15.09h3.35v1.24c1.16-1.04,2.46-1.56,3.86-1.56,3.43,0,5.24,1.96,5.24,5.67v9.74Zm-2.54-.81h1.73v-8.93c0-3.27-1.45-4.86-4.43-4.86-1.47,0-2.77.65-3.96,2l-.71.8v-2.48h-1.73v13.47h1.73v-9.97l.1-.11c1.37-1.61,2.77-2.43,4.18-2.43,1.08,0,1.87.31,2.37.92.48.59.72,1.5.72,2.77v8.83Z"/>
      </g>
      <g>
        <path class="cls-1" d="m274.13,98.71c2.04,0,3.66.65,4.88,1.95,1.22,1.3,1.82,3.14,1.82,5.52s-.61,4.21-1.82,5.51c-1.22,1.31-2.84,1.96-4.88,1.96s-3.65-.65-4.86-1.96c-1.22-1.31-1.82-3.14-1.82-5.51s.61-4.22,1.82-5.52c1.22-1.3,2.84-1.95,4.86-1.95Zm0,12.94c1.21,0,2.19-.46,2.95-1.38.75-.92,1.13-2.28,1.13-4.1s-.38-3.19-1.13-4.11c-.75-.92-1.74-1.38-2.95-1.38s-2.19.46-2.95,1.38-1.13,2.29-1.13,4.11.38,3.18,1.13,4.1,1.74,1.38,2.95,1.38Z"/>
        <path class="cls-1" d="m274.13,114.05c-2.14,0-3.87-.7-5.16-2.09-1.28-1.38-1.93-3.32-1.93-5.79s.65-4.42,1.93-5.79c1.29-1.38,3.03-2.08,5.16-2.08s3.88.7,5.17,2.08c1.28,1.37,1.93,3.32,1.93,5.79s-.65,4.41-1.93,5.79c-1.29,1.39-3.03,2.09-5.17,2.09Zm0-14.94c-1.9,0-3.44.61-4.57,1.82-1.14,1.22-1.71,2.98-1.71,5.24s.58,4.01,1.71,5.24c1.13,1.21,2.67,1.83,4.57,1.83s3.45-.62,4.58-1.83c1.14-1.22,1.71-2.98,1.71-5.24s-.58-4.02-1.71-5.24c-1.13-1.21-2.67-1.82-4.58-1.82Zm0,12.94c-1.33,0-2.43-.51-3.26-1.53-.81-.99-1.22-2.45-1.22-4.35s.41-3.38,1.22-4.37c.83-1.01,1.93-1.53,3.26-1.53s2.43.51,3.26,1.53c.81.99,1.22,2.46,1.22,4.37s-.41,3.37-1.22,4.35c-.83,1.01-1.93,1.53-3.26,1.53Zm0-10.97c-1.09,0-1.96.4-2.64,1.23-.69.84-1.04,2.14-1.04,3.85s.35,3,1.04,3.84c.68.83,1.54,1.23,2.64,1.23s1.95-.4,2.63-1.23c.69-.84,1.04-2.13,1.04-3.84s-.35-3.01-1.04-3.85c-.68-.83-1.54-1.23-2.63-1.23Z"/>
      </g>
      <g>
        <path class="cls-1" d="m295.22,99.03l-5.4,14.28h-2.26l-5.39-14.28h2.74l3.78,11.17,3.78-11.17h2.74Z"/>
        <path class="cls-1" d="m290.1,113.71h-2.82l-.1-.26-5.6-14.82h3.62l3.49,10.31,3.49-10.31h3.62l-5.7,15.09Zm-2.26-.81h1.7l5.09-13.47h-1.87l-4.07,12.03-4.07-12.03h-1.87l5.09,13.47Z"/>
      </g>
      <g>
        <path class="cls-1" d="m306.5,111.84c-1.29,1.2-2.96,1.8-4.99,1.8-1.42,0-2.58-.38-3.5-1.15-.91-.77-1.37-1.76-1.37-2.97,0-3.34,2.88-5.01,8.63-5.01h1.24c0-1.02-.05-1.77-.16-2.23s-.41-.84-.9-1.15-1.28-.46-2.35-.46c-2.26,0-3.43.81-3.5,2.42h-2.53c.19-2.93,2.24-4.4,6.16-4.4,1.83,0,3.26.36,4.28,1.09,1.02.73,1.53,2.15,1.53,4.28v9.23h-2.53v-1.47Zm0-2.29v-3.16h-1.74c-3.68,0-5.52,1-5.52,3,0,.73.27,1.28.81,1.68s1.26.59,2.18.59c.83,0,1.64-.19,2.42-.56.78-.38,1.39-.89,1.84-1.53Z"/>
        <path class="cls-1" d="m301.5,114.05c-1.51,0-2.77-.42-3.76-1.25-1.01-.84-1.52-1.95-1.52-3.28,0-3.59,3.04-5.41,9.03-5.41h.83c-.01-.78-.06-1.36-.15-1.73-.08-.36-.32-.65-.72-.9-.43-.26-1.15-.4-2.14-.4-2.7,0-3.06,1.16-3.09,2.03l-.02.39h-3.35l.03-.43c.2-3.17,2.41-4.78,6.57-4.78,1.91,0,3.43.39,4.51,1.16,1.13.8,1.71,2.35,1.71,4.61v9.64h-3.34v-1.02c-1.26.9-2.8,1.36-4.59,1.36Zm3.75-9.12c-5.53,0-8.22,1.5-8.22,4.6,0,1.09.4,1.96,1.23,2.66.84.7,1.93,1.06,3.24,1.06,1.92,0,3.51-.57,4.72-1.7l.68-.63v1.99h1.72v-8.83c0-1.98-.46-3.31-1.36-3.95-.95-.67-2.31-1.02-4.04-1.02-3.5,0-5.37,1.18-5.72,3.59h1.72c.19-1.18,1.05-2.42,3.87-2.42,1.16,0,2,.17,2.57.52.59.36.95.84,1.08,1.4.12.5.17,1.25.17,2.32v.41h-1.65Zm-3.02,7.13c-1,0-1.81-.22-2.42-.66-.65-.47-.98-1.15-.98-2,0-2.26,1.99-3.41,5.92-3.41h2.14v3.69l-.07.1c-.49.7-1.16,1.26-2,1.67-.83.4-1.71.61-2.6.61Zm2.53-5.26c-5.11,0-5.11,1.95-5.11,2.6,0,.59.21,1.03.64,1.35.47.34,1.12.51,1.94.51.77,0,1.52-.18,2.24-.53.67-.32,1.22-.76,1.62-1.3v-2.63h-1.33Z"/>
      </g>
      <g>
        <path class="cls-1" d="m318.32,113.34c-.56.11-1.16.16-1.82.16-1.04,0-1.8-.19-2.29-.56-.48-.37-.78-.85-.9-1.43-.12-.58-.17-1.38-.17-2.38v-8.1h-1.76v-1.99h1.76v-3.55h2.53v3.55h2.31v1.99h-2.31v8.23c0,.98.12,1.6.37,1.86s.59.4,1.02.4.86-.04,1.26-.11v1.92Z"/>
        <path class="cls-1" d="m316.51,113.9c-1.14,0-1.97-.21-2.53-.64-.56-.43-.92-1-1.05-1.68-.12-.62-.18-1.44-.18-2.46v-7.7h-1.76v-2.8h1.76v-3.55h3.34v3.55h2.31v2.8h-2.31v7.83c0,1.21.2,1.52.26,1.59.17.18.41.27.72.27.41,0,.81-.03,1.19-.1l.48-.08v2.74l-.33.06c-.58.11-1.21.17-1.89.17Zm-4.72-13.28h1.76v8.51c0,.96.06,1.74.17,2.3.1.49.34.88.75,1.19.41.31,1.1.47,2.04.47.5,0,.97-.03,1.41-.1v-1.12c-.28.03-.57.05-.86.05-.54,0-.99-.18-1.31-.53-.33-.35-.48-1.03-.48-2.14v-8.64h2.31v-1.18h-2.31v-3.55h-1.72v3.55h-1.76v1.18Z"/>
      </g>
      <g>
        <path class="cls-1" d="m322.98,96.33h-2.54v-2.74h2.54v2.74Zm0,16.98h-2.54v-14.28h2.54v14.28Z"/>
        <path class="cls-1" d="m323.39,113.71h-3.35v-15.09h3.35v15.09Zm-2.54-.81h1.73v-13.47h-1.73v13.47Zm2.54-16.17h-3.35v-3.55h3.35v3.55Zm-2.54-.81h1.73v-1.93h-1.73v1.93Z"/>
      </g>
      <g>
        <path class="cls-1" d="m332.51,98.71c2.04,0,3.66.65,4.88,1.95,1.22,1.3,1.82,3.14,1.82,5.52s-.61,4.21-1.82,5.51c-1.22,1.31-2.84,1.96-4.88,1.96s-3.65-.65-4.86-1.96c-1.22-1.31-1.82-3.14-1.82-5.51s.61-4.22,1.82-5.52c1.22-1.3,2.84-1.95,4.86-1.95Zm0,12.94c1.21,0,2.19-.46,2.95-1.38.75-.92,1.13-2.28,1.13-4.1s-.38-3.19-1.13-4.11c-.75-.92-1.74-1.38-2.95-1.38s-2.19.46-2.95,1.38-1.13,2.29-1.13,4.11.38,3.18,1.13,4.1,1.74,1.38,2.95,1.38Z"/>
        <path class="cls-1" d="m332.51,114.05c-2.13,0-3.87-.7-5.16-2.09-1.28-1.37-1.93-3.32-1.93-5.79s.65-4.42,1.93-5.79c1.29-1.38,3.02-2.08,5.16-2.08s3.88.7,5.18,2.08c1.28,1.37,1.93,3.32,1.93,5.79s-.65,4.41-1.93,5.79c-1.29,1.39-3.03,2.09-5.18,2.09Zm0-14.94c-1.93,0-3.42.6-4.57,1.82-1.14,1.22-1.72,2.98-1.72,5.24s.58,4.01,1.72,5.23c1.15,1.23,2.64,1.83,4.57,1.83s3.43-.6,4.58-1.83c1.14-1.22,1.71-2.98,1.71-5.23s-.58-4.02-1.71-5.24c-1.15-1.23-2.65-1.82-4.58-1.82Zm0,12.94c-1.33,0-2.43-.51-3.26-1.53-.81-.99-1.22-2.46-1.22-4.35s.41-3.37,1.22-4.37c.83-1.01,1.93-1.53,3.26-1.53s2.43.51,3.26,1.53c.81.99,1.22,2.46,1.22,4.37s-.41,3.37-1.22,4.36c-.83,1.01-1.93,1.53-3.26,1.53Zm0-10.97c-1.09,0-1.95.4-2.63,1.23-.69.84-1.04,2.14-1.04,3.85s.35,3,1.04,3.84c.68.83,1.54,1.23,2.63,1.23s1.95-.4,2.63-1.23c.69-.84,1.04-2.13,1.04-3.84s-.35-3.01-1.04-3.85c-.68-.83-1.54-1.23-2.63-1.23Z"/>
      </g>
      <g>
        <path class="cls-1" d="m344.59,100.85c1.26-1.43,2.69-2.14,4.27-2.14,3.22,0,4.83,1.75,4.83,5.26v9.34h-2.54v-9.23c0-1.17-.21-2-.63-2.52-.42-.51-1.1-.77-2.05-.77-1.29,0-2.58.76-3.87,2.29v10.23h-2.54v-14.28h2.54v1.82Z"/>
        <path class="cls-1" d="m354.09,113.71h-3.35v-9.64c0-1.06-.18-1.82-.53-2.26-.34-.41-.92-.62-1.74-.62-1.13,0-2.3.68-3.47,2.03v10.48h-3.35v-15.09h3.35v1.24c1.16-1.04,2.46-1.56,3.86-1.56,3.42,0,5.23,1.96,5.23,5.67v9.74Zm-2.54-.81h1.73v-8.93c0-3.27-1.45-4.86-4.42-4.86-1.45,0-2.79.67-3.96,2l-.71.8v-2.48h-1.73v13.47h1.73v-9.97l.1-.11c1.37-1.61,2.77-2.43,4.18-2.43,1.07,0,1.87.31,2.37.92.48.59.72,1.5.72,2.77v8.83Z"/>
      </g>
      <g>
        <path class="cls-1" d="m379.81,111.99l-1.96,1.66-1.71-2.15c-1.56,1.43-3.52,2.15-5.87,2.15-1.81,0-3.31-.56-4.49-1.68-1.18-1.12-1.77-2.48-1.77-4.08,0-1.22.38-2.29,1.13-3.2s1.9-1.81,3.44-2.68c-1.4-1.79-2.1-3.24-2.1-4.35,0-1.26.47-2.31,1.39-3.15s2.1-1.27,3.52-1.27c1.32,0,2.41.41,3.28,1.23s1.3,1.81,1.3,2.98c0,1.04-.32,1.94-.96,2.7-.64.76-1.61,1.51-2.91,2.27l3.97,4.94c.39-.99.61-2.1.66-3.34h2.62c-.12,2.07-.64,3.89-1.57,5.45l2.02,2.52Zm-5.1-2.31l-4.8-6.02c-1.14.67-1.97,1.31-2.49,1.9s-.78,1.31-.78,2.15c0,1,.35,1.89,1.04,2.64.7.76,1.57,1.14,2.62,1.14,1.81,0,3.28-.61,4.41-1.82Zm-3.89-8.86c.92-.5,1.6-1,2.03-1.5.43-.5.65-1.1.65-1.81s-.22-1.23-.67-1.65c-.44-.42-.97-.63-1.57-.63-.65,0-1.19.2-1.63.6-.44.4-.66.92-.66,1.57,0,.73.4,1.6,1.21,2.62l.63.79Z"/>
        <path class="cls-1" d="m377.78,114.23l-1.7-2.15c-1.58,1.31-3.53,1.97-5.81,1.97-1.91,0-3.52-.6-4.77-1.8-1.26-1.19-1.9-2.66-1.9-4.37,0-1.31.41-2.47,1.22-3.46.71-.86,1.77-1.72,3.15-2.54-1.28-1.71-1.9-3.1-1.9-4.23,0-1.37.51-2.53,1.53-3.45,1-.91,2.28-1.37,3.79-1.37,1.42,0,2.62.45,3.56,1.34.94.9,1.42,2,1.42,3.27,0,1.13-.35,2.13-1.05,2.96-.59.71-1.47,1.42-2.61,2.12l3.21,4c.23-.77.36-1.62.4-2.53l.02-.39h3.44l-.02.43c-.12,2.02-.62,3.83-1.49,5.39l2.09,2.61-2.59,2.18Zm-6.39-20.58c-1.32,0-2.38.38-3.25,1.16-.85.77-1.26,1.7-1.26,2.85,0,1.01.68,2.38,2.01,4.1l.29.37-.41.23c-1.49.84-2.61,1.71-3.33,2.58-.69.84-1.04,1.83-1.04,2.94,0,1.5.54,2.73,1.65,3.78,1.09,1.04,2.51,1.57,4.21,1.57,2.23,0,4.12-.69,5.59-2.05l.32-.3,1.72,2.17,1.34-1.13-1.95-2.43.14-.24c.83-1.39,1.33-3.02,1.49-4.84h-1.81c-.08,1.12-.31,2.16-.67,3.08l-.25.65-4.7-5.85.41-.24c1.25-.72,2.19-1.46,2.8-2.18.58-.69.86-1.49.86-2.44,0-1.06-.38-1.94-1.17-2.69-.8-.75-1.78-1.12-3-1.12Zm-1.1,18.25c-1.16,0-2.14-.43-2.92-1.27-.76-.83-1.15-1.81-1.15-2.92,0-.93.3-1.74.88-2.41.55-.63,1.42-1.3,2.59-1.99l.3-.18,5.24,6.56-.24.26c-1.2,1.29-2.79,1.94-4.71,1.94Zm-.48-7.71c-.94.58-1.64,1.13-2.09,1.64-.46.52-.68,1.14-.68,1.88,0,.91.31,1.68.94,2.37.62.68,1.38,1.01,2.32,1.01,1.58,0,2.85-.47,3.87-1.44l-4.36-5.46Zm.9-2.85l-.84-1.06c-.87-1.11-1.3-2.05-1.3-2.88,0-.76.27-1.39.79-1.87.51-.47,1.15-.7,1.9-.7.71,0,1.33.25,1.84.74.53.5.79,1.15.79,1.94s-.25,1.5-.74,2.07c-.47.54-1.17,1.06-2.15,1.59l-.3.16Zm.55-5.7c-.55,0-.99.16-1.36.49-.35.32-.53.74-.53,1.27,0,.63.38,1.43,1.12,2.37l.42.52c.73-.42,1.27-.84,1.63-1.24.37-.43.55-.93.55-1.54,0-.57-.18-1.01-.54-1.35-.37-.35-.79-.52-1.29-.52Z"/>
      </g>
      <g>
        <path class="cls-1" d="m390.73,93.58h6.26c6.7,0,10.05,3.25,10.05,9.76s-3.35,9.97-10.05,9.97h-6.26v-19.73Zm2.61,17.39h3.59c2.86,0,4.81-.67,5.85-2,1.04-1.33,1.56-3.21,1.56-5.63s-.52-4.18-1.55-5.48c-1.04-1.29-2.99-1.94-5.86-1.94h-3.59v15.04Z"/>
        <path class="cls-1" d="m396.99,113.71h-6.66v-20.54h6.66c6.94,0,10.45,3.42,10.45,10.16s-3.52,10.38-10.45,10.38Zm-5.85-.81h5.85c6.49,0,9.64-3.13,9.64-9.57s-3.15-9.35-9.64-9.35h-5.85v18.92Zm5.8-1.53h-4v-15.85h4c2.99,0,5.06.7,6.18,2.09,1.09,1.36,1.64,3.29,1.64,5.73s-.55,4.48-1.65,5.88c-1.12,1.43-3.19,2.15-6.17,2.15Zm-3.19-.81h3.19c2.72,0,4.58-.62,5.53-1.84.98-1.25,1.47-3.07,1.47-5.38s-.49-4.01-1.47-5.22c-.95-1.18-2.82-1.79-5.54-1.79h-3.19v14.23Z"/>
      </g>
      <g>
        <path class="cls-1" d="m417.71,101.35c-.36-.11-.87-.16-1.55-.16-1.29,0-2.4.68-3.32,2.03v10.09h-2.54v-14.28h2.54v1.99c1.07-1.54,2.31-2.31,3.71-2.31.36,0,.75.03,1.16.11v2.53Z"/>
        <path class="cls-1" d="m413.25,113.71h-3.35v-15.09h3.35v1.24c1.28-1.37,2.77-1.77,4.54-1.45l.33.06v3.41l-.52-.16c-.32-.09-.8-.14-1.43-.14-1.13,0-2.08.57-2.92,1.75v10.37Zm-2.54-.81h1.73v-9.81l.07-.1c1-1.47,2.23-2.21,3.66-2.21.45,0,.82.02,1.14.07v-1.68c-.26-.03-.51-.05-.75-.05-1.28,0-2.38.7-3.38,2.14l-.74,1.07v-2.89h-1.73v13.47Z"/>
      </g>
      <g>
        <path class="cls-1" d="m422.02,96.33h-2.54v-2.74h2.54v2.74Zm0,16.98h-2.54v-14.28h2.54v14.28Z"/>
        <path class="cls-1" d="m422.42,113.71h-3.35v-15.09h3.35v15.09Zm-2.54-.81h1.73v-13.47h-1.73v13.47Zm2.54-16.17h-3.35v-3.55h3.35v3.55Zm-2.54-.81h1.73v-1.93h-1.73v1.93Z"/>
      </g>
      <g>
        <path class="cls-1" d="m437.3,99.03l-5.4,14.28h-2.26l-5.39-14.28h2.74l3.78,11.17,3.78-11.17h2.74Z"/>
        <path class="cls-1" d="m432.19,113.71h-2.82l-.1-.26-5.6-14.82h3.62l3.49,10.31,3.49-10.31h3.62l-5.7,15.09Zm-2.26-.81h1.7l5.09-13.47h-1.87l-4.07,12.03-4.07-12.03h-1.87l5.09,13.47Z"/>
      </g>
      <g>
        <path class="cls-1" d="m442.08,96.33h-2.54v-2.74h2.54v2.74Zm0,16.98h-2.54v-14.28h2.54v14.28Z"/>
        <path class="cls-1" d="m442.49,113.71h-3.35v-15.09h3.35v15.09Zm-2.54-.81h1.73v-13.47h-1.73v13.47Zm2.54-16.17h-3.35v-3.55h3.35v3.55Zm-2.54-.81h1.73v-1.93h-1.73v1.93Z"/>
      </g>
      <g>
        <path class="cls-1" d="m448.37,100.85c1.26-1.43,2.69-2.14,4.27-2.14,3.22,0,4.83,1.75,4.83,5.26v9.34h-2.54v-9.23c0-1.17-.21-2-.63-2.52-.42-.51-1.1-.77-2.05-.77-1.29,0-2.58.76-3.87,2.29v10.23h-2.54v-14.28h2.54v1.82Z"/>
        <path class="cls-1" d="m457.87,113.71h-3.35v-9.64c0-1.06-.18-1.82-.53-2.26-.34-.41-.92-.62-1.74-.62-1.13,0-2.3.68-3.47,2.03v10.48h-3.35v-15.09h3.35v1.24c1.16-1.04,2.46-1.56,3.86-1.56,3.42,0,5.23,1.96,5.23,5.67v9.74Zm-2.54-.81h1.73v-8.93c0-3.27-1.45-4.86-4.42-4.86-1.45,0-2.79.67-3.96,2l-.71.8v-2.48h-1.73v13.47h1.73v-9.97l.1-.11c1.37-1.61,2.77-2.43,4.18-2.43,1.07,0,1.87.31,2.37.92.48.59.72,1.5.72,2.77v8.83Z"/>
      </g>
      <g>
        <path class="cls-1" d="m472.72,112.21c0,4.59-2.07,6.89-6.22,6.89-1.79,0-3.21-.39-4.24-1.17-1.04-.78-1.55-1.83-1.55-3.15h2.62c0,1.56,1.05,2.34,3.15,2.34,1.18,0,2.1-.33,2.74-.98.65-.65.97-1.93.97-3.83v-.71c-1.13,1.36-2.49,2.05-4.08,2.05-1.87,0-3.31-.66-4.33-1.99s-1.53-3.12-1.53-5.37.57-4.18,1.72-5.54,2.58-2.04,4.31-2.04c1.54,0,2.85.47,3.92,1.43v-1.1h2.53v13.17Zm-2.53-3v-6.78c-1.09-1.16-2.35-1.74-3.75-1.74-1.09,0-1.95.47-2.6,1.41-.65.94-.98,2.33-.98,4.19,0,1.76.31,3.09.92,4,.61.91,1.47,1.37,2.55,1.37,1.42,0,2.7-.82,3.86-2.45Z"/>
        <path class="cls-1" d="m466.5,119.5c-1.88,0-3.39-.42-4.49-1.25-1.14-.85-1.71-2.02-1.71-3.47v-.41h3.43v.41c0,.83.28,1.94,2.74,1.94,1.06,0,1.89-.29,2.46-.86.53-.54.82-1.63.85-3.24-1.06.96-2.29,1.44-3.67,1.44-1.99,0-3.55-.72-4.65-2.15-1.07-1.4-1.62-3.28-1.62-5.62s.61-4.37,1.81-5.8c1.22-1.45,2.78-2.18,4.62-2.18,1.33,0,2.51.34,3.51,1.01v-.69h3.34v13.58c0,4.84-2.23,7.29-6.62,7.29Zm-5.37-4.32c.09,1,.54,1.8,1.37,2.42.96.72,2.3,1.09,4,1.09,3.91,0,5.81-2.12,5.81-6.48v-12.77h-1.72v1.6l-.67-.6c-1-.89-2.19-1.32-3.65-1.32-1.62,0-2.93.62-4,1.89-1.07,1.28-1.62,3.05-1.62,5.28s.49,3.87,1.45,5.12c.95,1.23,2.26,1.83,4.01,1.83,1.47,0,2.71-.62,3.77-1.9l.72-.86v1.84c0,2.03-.36,3.38-1.09,4.11-.72.73-1.74,1.09-3.03,1.09-2.62,0-3.4-1.19-3.53-2.34h-1.82Zm5.2-3.12c-1.22,0-2.19-.52-2.89-1.54-.66-.97-.99-2.4-.99-4.23,0-1.93.35-3.42,1.05-4.42.73-1.05,1.72-1.58,2.94-1.58,1.52,0,2.88.63,4.05,1.86l.11.12v7.07l-.07.1c-1.23,1.74-2.64,2.62-4.19,2.62Zm.11-10.97c-.95,0-1.7.4-2.27,1.23-.6.86-.9,2.2-.9,3.96,0,1.67.29,2.94.85,3.78.54.8,1.26,1.19,2.21,1.19,1.24,0,2.41-.73,3.46-2.17v-6.49c-1-1.01-2.09-1.5-3.35-1.5Z"/>
      </g>
      <g>
        <path class="cls-1" d="m502.43,113.04l-1.55,1.84-3.26-2.57c-1.46.89-3.11,1.33-4.95,1.33-2.77,0-5.04-.94-6.81-2.81-1.77-1.87-2.65-4.33-2.65-7.39s.88-5.54,2.65-7.4c1.77-1.87,4.04-2.8,6.81-2.8s5.02.93,6.78,2.8c1.76,1.87,2.64,4.33,2.64,7.4s-.85,5.42-2.56,7.33l2.89,2.26Zm-4.86-3.81c1.21-1.43,1.82-3.36,1.82-5.79s-.63-4.47-1.88-5.87c-1.26-1.4-2.86-2.1-4.8-2.1s-3.61.7-4.88,2.1c-1.27,1.4-1.9,3.36-1.9,5.87s.63,4.46,1.9,5.86c1.27,1.4,2.88,2.11,4.83,2.11,1.04,0,2.03-.22,2.97-.66l-1.96-1.55,1.55-1.84,2.37,1.87Z"/>
        <path class="cls-1" d="m500.94,115.45l-3.35-2.64c-1.46.83-3.12,1.25-4.92,1.25-2.88,0-5.27-.99-7.1-2.93-1.83-1.94-2.76-4.52-2.76-7.67s.93-5.75,2.76-7.68c1.84-1.94,4.23-2.93,7.1-2.93s5.24.99,7.08,2.93c1.82,1.93,2.75,4.52,2.75,7.68,0,2.9-.8,5.34-2.38,7.27l2.89,2.26-2.07,2.46Zm-3.28-3.62l3.17,2.5,1.02-1.22-2.9-2.27.29-.32c1.63-1.83,2.45-4.21,2.45-7.06s-.85-5.34-2.53-7.12c-1.67-1.78-3.85-2.67-6.49-2.67s-4.84.9-6.52,2.67c-1.69,1.78-2.54,4.17-2.54,7.12s.85,5.33,2.54,7.11c1.68,1.78,3.87,2.68,6.52,2.68,1.75,0,3.35-.43,4.74-1.27l.24-.15Zm-5.01,0c-2.06,0-3.79-.75-5.13-2.24-1.33-1.48-2-3.54-2-6.13s.68-4.67,2.01-6.14c1.34-1.48,3.09-2.23,5.18-2.23s3.77.75,5.1,2.23c1.32,1.47,1.99,3.54,1.99,6.14s-.64,4.54-1.91,6.05l-.25.3-2.37-1.87-1.03,1.22,2.15,1.7-.6.28c-.99.46-2.05.7-3.15.7Zm.05-15.93c-1.88,0-3.38.64-4.58,1.97-1.19,1.31-1.8,3.2-1.8,5.6s.6,4.27,1.79,5.59c1.2,1.33,2.68,1.97,4.53,1.97.75,0,1.48-.12,2.18-.37l-1.75-1.37,2.07-2.46,2.36,1.86c.98-1.32,1.48-3.08,1.48-5.22,0-2.4-.6-4.28-1.78-5.6-1.19-1.32-2.66-1.96-4.5-1.96Z"/>
      </g>
      <g>
        <path class="cls-1" d="m514.28,111.49c-1.27,1.43-2.69,2.15-4.27,2.15-3.22,0-4.83-1.76-4.83-5.27v-9.34h2.54v9.23c0,1.17.21,2.01.62,2.52s1.09.77,2.05.77c1.42,0,2.71-.76,3.89-2.29v-10.23h2.53v14.28h-2.53v-1.82Z"/>
        <path class="cls-1" d="m510.01,114.05c-3.43,0-5.24-1.96-5.24-5.68v-9.74h3.35v9.63c0,1.07.18,1.83.53,2.26.33.41.91.62,1.73.62,1.25,0,2.42-.68,3.48-2.02v-10.49h3.34v15.09h-3.34v-1.24c-1.16,1.04-2.46,1.57-3.86,1.57Zm-4.43-14.61v8.93c0,3.28,1.45,4.87,4.43,4.87,1.47,0,2.77-.66,3.96-2.02l.71-.8v2.48h1.72v-13.47h-1.72v9.96l-.08.11c-1.25,1.62-2.67,2.45-4.21,2.45-1.08,0-1.87-.31-2.36-.92-.48-.59-.71-1.5-.71-2.77v-8.82h-1.73Z"/>
      </g>
      <g>
        <path class="cls-1" d="m529.6,111.84c-1.29,1.2-2.96,1.8-4.99,1.8-1.42,0-2.58-.38-3.5-1.15-.91-.77-1.37-1.76-1.37-2.97,0-3.34,2.88-5.01,8.63-5.01h1.24c0-1.02-.05-1.77-.16-2.23s-.41-.84-.9-1.15-1.28-.46-2.35-.46c-2.26,0-3.43.81-3.5,2.42h-2.53c.19-2.93,2.24-4.4,6.16-4.4,1.83,0,3.26.36,4.28,1.09,1.02.73,1.53,2.15,1.53,4.28v9.23h-2.53v-1.47Zm0-2.29v-3.16h-1.74c-3.68,0-5.52,1-5.52,3,0,.73.27,1.28.81,1.68s1.26.59,2.18.59c.83,0,1.64-.19,2.42-.56.78-.38,1.39-.89,1.84-1.53Z"/>
        <path class="cls-1" d="m524.61,114.05c-1.51,0-2.77-.42-3.76-1.25-1.01-.84-1.52-1.95-1.52-3.28,0-3.59,3.04-5.41,9.03-5.41h.83c-.01-.78-.06-1.36-.15-1.73-.08-.36-.32-.65-.72-.9-.43-.26-1.15-.4-2.14-.4-2.69,0-3.06,1.16-3.09,2.04l-.02.39h-3.35l.03-.43c.2-3.17,2.41-4.78,6.57-4.78,1.91,0,3.43.39,4.51,1.16,1.13.8,1.71,2.35,1.71,4.61v9.64h-3.34v-1.02c-1.25.9-2.79,1.35-4.59,1.35Zm3.76-9.12c-5.53,0-8.22,1.5-8.22,4.6,0,1.09.4,1.96,1.23,2.66.84.7,1.93,1.06,3.24,1.06,1.92,0,3.51-.57,4.72-1.69l.68-.63v1.99h1.72v-8.83c0-1.98-.46-3.31-1.36-3.95-.95-.67-2.31-1.02-4.04-1.02-3.5,0-5.38,1.18-5.72,3.59h1.71c.19-1.18,1.05-2.42,3.87-2.42,1.16,0,2,.17,2.57.52.59.36.95.84,1.08,1.4.12.5.17,1.25.17,2.32v.41h-1.64Zm-3.03,7.13c-1,0-1.81-.22-2.42-.66-.65-.47-.97-1.14-.97-2,0-2.26,1.99-3.41,5.92-3.41h2.14v3.69l-.07.1c-.49.7-1.16,1.26-2,1.67-.84.4-1.71.61-2.6.61Zm2.53-5.26c-5.11,0-5.11,1.95-5.11,2.6,0,.59.21,1.03.64,1.35.47.34,1.12.51,1.94.51.77,0,1.53-.18,2.25-.53.67-.32,1.21-.76,1.61-1.3v-2.63h-1.33Z"/>
      </g>
      <g>
        <path class="cls-1" d="m538.43,113.31h-2.54v-19.73h2.54v19.73Z"/>
        <path class="cls-1" d="m538.84,113.71h-3.35v-20.54h3.35v20.54Zm-2.54-.81h1.73v-18.92h-1.73v18.92Z"/>
      </g>
      <g>
        <path class="cls-1" d="m544.72,96.33h-2.54v-2.74h2.54v2.74Zm0,16.98h-2.54v-14.28h2.54v14.28Z"/>
        <path class="cls-1" d="m545.12,113.71h-3.35v-15.09h3.35v15.09Zm-2.54-.81h1.73v-13.47h-1.73v13.47Zm2.54-16.17h-3.35v-3.55h3.35v3.55Zm-2.54-.81h1.73v-1.93h-1.73v1.93Z"/>
      </g>
      <g>
        <path class="cls-1" d="m554,113.34c-.56.11-1.16.16-1.82.16-1.04,0-1.8-.19-2.29-.56-.48-.37-.78-.85-.9-1.43-.12-.58-.17-1.38-.17-2.38v-8.1h-1.76v-1.99h1.76v-3.55h2.53v3.55h2.31v1.99h-2.31v8.23c0,.98.12,1.6.37,1.86s.59.4,1.02.4.86-.04,1.26-.11v1.92Z"/>
        <path class="cls-1" d="m552.18,113.9c-1.14,0-1.97-.21-2.53-.64-.56-.43-.92-1-1.05-1.68-.12-.62-.18-1.44-.18-2.46v-7.7h-1.76v-2.8h1.76v-3.55h3.34v3.55h2.31v2.8h-2.31v7.83c0,1.21.2,1.52.26,1.59.17.18.41.27.72.27.41,0,.81-.03,1.19-.1l.48-.08v2.74l-.33.06c-.58.11-1.21.17-1.89.17Zm-4.72-13.28h1.76v8.51c0,.96.06,1.74.17,2.3.1.49.34.88.75,1.19.41.31,1.1.47,2.04.47.5,0,.97-.03,1.41-.1v-1.12c-.28.03-.57.05-.86.05-.54,0-.99-.18-1.31-.53-.33-.35-.48-1.03-.48-2.14v-8.64h2.31v-1.18h-2.31v-3.55h-1.72v3.55h-1.76v1.18Z"/>
      </g>
      <g>
        <path class="cls-1" d="m556.92,116.75c1.25,0,2.28-1.15,3.08-3.44l-5.39-14.28h2.74l3.78,11.17,3.78-11.17h2.74l-5.4,14.28c-.52,1.36-.96,2.42-1.33,3.16-.36.74-.84,1.36-1.43,1.87-.59.51-1.31.76-2.16.76-.64,0-1.18-.06-1.64-.19v-2.34c.4.13.8.19,1.21.19Z"/>
        <path class="cls-1" d="m557.35,119.5c-.67,0-1.26-.07-1.75-.2l-.3-.08v-3.21l.53.17c.35.11.72.17,1.09.17,1.04,0,1.93-1.02,2.65-3.03l-5.55-14.69h3.62l3.49,10.31,3.49-10.31h3.62l-5.61,14.83c-.52,1.36-.97,2.43-1.34,3.19-.38.78-.89,1.45-1.52,2-.66.57-1.48.86-2.43.86Zm-1.24-.91c.36.07.77.1,1.24.1.76,0,1.38-.22,1.9-.66.55-.47.99-1.06,1.32-1.74.36-.74.8-1.79,1.31-3.12l5.19-13.73h-1.87l-4.07,12.03-4.07-12.03h-1.87l5.24,13.87-.05.14c-.86,2.47-2.02,3.72-3.46,3.72-.27,0-.54-.03-.81-.07v1.5Z"/>
      </g>
    </g>
  </g>
  <g>
    <polygon class="cls-2" points="88.01 94.66 88.19 94.53 88.19 83.97 32.65 8.5 25.24 8.5 24.83 8.8 88.01 94.66"/>
    <polygon class="cls-2" points="88.19 62.55 88.19 52.42 53.88 8.5 46.43 8.5 45.95 8.87 88.19 62.55"/>
    <polygon class="cls-2" points="5.74 35.72 4.76 36.45 4.76 45.26 59.45 118.66 66.87 118.66 67.3 118.35 5.74 35.72"/>
    <rect class="cls-2" x="43.7" y="37.43" width="6.48" height="53.14" transform="translate(-29.29 41.89) rotate(-37.57)"/>
    <polygon class="cls-2" points="5.7 68.08 4.76 68.81 4.76 77.45 36.67 118.66 44.11 118.66 44.58 118.3 5.7 68.08"/>
    <polygon class="cls-2" points="4.76 118.66 20.96 118.66 4.76 97.6 4.76 118.66"/>
    <polygon class="cls-1" points="87.38 8.5 71.18 8.5 87.38 29.56 87.38 8.5"/>
  </g>
</svg>